Coordinates
version=1
nRows=22
nColumns=24
inDegrees=yes

Units are S.I. units (second, meters, Newtons, ...)
Angles are in degrees.

endheader
time	pelvis_tilt	pelvis_list	pelvis_rotation	pelvis_tx	pelvis_ty	pelvis_tz	hip_flexion_r	hip_adduction_r	hip_rotation_r	knee_angle_r	ankle_angle_r	subtalar_angle_r	mtp_angle_r	hip_flexion_l	hip_adduction_l	hip_rotation_l	knee_angle_l	ankle_angle_l	subtalar_angle_l	mtp_angle_l	lumbar_extension	lumbar_bending	lumbar_rotation
      3.72000000	     -3.43334428	     -0.75072575	      4.35650146	     -0.05432385	      0.93837718	     -0.00705147	     32.34742169	      0.63182976	     -4.49613382	    -37.84043911	     11.22676815	      0.00000034	      0.00000000	     10.18147742	     -2.16887833	      1.51145811	    -64.46737620	     -4.15124614	      0.00000061	      0.00000000	    -12.05469394	     -0.95277841	      0.43040262
      3.73000000	     -3.47305301	     -0.57632883	      4.23528047	     -0.05478383	      0.94224423	     -0.00645373	     30.85691281	      0.67905497	     -4.28367380	    -36.93647673	     11.47735463	      0.00000035	      0.00000000	     12.25632003	     -2.02707863	      1.89513480	    -65.77486924	     -3.09257798	      0.00000069	      0.00000000	    -11.96010435	     -1.25760383	      0.64888082
      3.74000000	     -3.52201139	     -0.45546674	      4.14941554	     -0.05534361	      0.94605052	     -0.00621318	     29.33284592	      0.68561091	     -4.18668693	    -35.94529127	     11.89284508	      0.00000040	      0.00000000	     14.42652168	     -1.91514749	      1.96319627	    -66.83321921	     -2.43650162	      0.00000079	      0.00000000	    -11.85769423	     -1.41678649	      0.80267523
      3.75000000	     -3.55872062	     -0.28013655	      4.08003459	     -0.05604667	      0.95014002	     -0.00582350	     27.63582779	      0.67610056	     -4.01902762	    -34.63573514	     11.88784296	      0.00000039	      0.00000000	     16.55319066	     -1.80109082	      1.65483318	    -67.51496772	     -2.23799668	      0.00000078	      0.00000000	    -11.82486117	     -1.69579760	      1.01838576
      3.76000000	     -3.64341542	     -0.08543963	      4.02890681	     -0.05678920	      0.95406873	     -0.00564993	     26.01794825	      0.53122131	     -4.06020178	    -33.36792636	     12.32278598	      0.00000038	      0.00000000	     18.69233878	     -1.62836357	      1.12852720	    -67.88368391	     -2.26703885	      0.00000081	      0.00000000	    -11.73693867	     -1.98326687	      1.19186036
      3.77000000	     -3.70242357	      0.05415403	      3.97153641	     -0.05760766	      0.95778891	     -0.00553158	     24.24195689	      0.48477591	     -4.04921451	    -31.79755523	     12.25945429	      0.00000032	      0.00000000	     20.76537949	     -1.52053708	      0.46497075	    -67.96065890	     -2.05250010	      0.00000079	      0.00000000	    -11.67936070	     -2.18372546	      1.36733955
      3.78000000	     -3.76769653	      0.21226046	      3.91002211	     -0.05840224	      0.96135526	     -0.00541285	     22.49022684	      0.39174905	     -4.07936382	    -30.24512638	     12.27651748	      0.00000042	      0.00000000	     22.75327605	     -1.44164828	     -0.32571596	    -67.70190828	     -1.52257627	      0.00000078	      0.00000000	    -11.60730466	     -2.42985314	      1.55455737
      3.79000000	     -3.86102155	      0.35521695	      3.83563014	     -0.05923498	      0.96464578	     -0.00527657	     20.66380253	      0.37063511	     -4.03233350	    -28.42280761	     12.02200357	      0.00000037	      0.00000000	     24.68194586	     -1.44731973	     -1.25736267	    -67.10707437	     -0.54330056	      0.00000073	      0.00000000	    -11.52768798	     -2.68601377	      1.77395852
      3.80000000	     -3.93333555	      0.49376163	      3.73862904	     -0.05999557	      0.96747318	     -0.00525690	     18.88955876	      0.35434320	     -3.92076374	    -26.82651877	     11.69932626	      0.00000031	      0.00000000	     26.58050321	     -1.48349976	     -2.27119906	    -66.39220960	      1.16472116	      0.00000061	      0.00000000	    -11.42868309	     -2.88303125	      1.97248913
      3.81000000	     -4.13174875	      0.30698297	      3.81944280	     -0.06171716	      0.96934434	     -0.00534246	     17.37732737	      0.68467562	     -3.88060141	    -25.23090641	     11.74130286	      0.00000038	      0.00000000	     28.77458765	     -1.86387261	     -3.07239765	    -65.64159220	      2.88852653	      0.00000050	      0.00000000	    -11.28881551	     -2.71355785	      2.08979002
      3.82000000	     -4.08142409	      0.72912070	      3.63281749	     -0.06231454	      0.97196689	     -0.00521334	     15.39869455	      0.42942448	     -3.55514649	    -23.39023215	     11.27871245	      0.00000032	      0.00000000	     30.11918276	     -1.70626591	     -4.37709399	    -64.02283393	      4.39205382	      0.00000038	      0.00000000	    -11.38981110	     -3.25919862	      2.36179325
      3.83000000	     -4.13716699	      0.89970079	      3.49607413	     -0.06325365	      0.97354974	     -0.00519547	     13.78263655	      0.40632242	     -3.29055837	    -21.96098999	     11.37739611	      0.00000034	      0.00000000	     31.61711201	     -1.77308676	     -5.47445272	    -62.33899542	      5.92638216	      0.00000035	      0.00000000	    -11.37822966	     -3.52582058	      2.65697122
      3.84000000	     -4.21491163	      1.02673676	      3.35148607	     -0.06427933	      0.97457659	     -0.00524423	     12.20274311	      0.40892053	     -3.04890082	    -20.46998615	     11.41275074	      0.00000036	      0.00000000	     33.02872165	     -1.85527084	     -6.47110493	    -60.39600369	      7.40952001	      0.00000025	      0.00000000	    -11.32610888	     -3.73004327	      2.88141022
      3.85000000	     -4.24883923	      1.16940482	      3.19305743	     -0.06523949	      0.97520495	     -0.00535457	     10.60739367	      0.37839869	     -2.80491207	    -19.04183086	     11.42534815	      0.00000037	      0.00000000	     34.23733822	     -1.88325163	     -7.43843106	    -58.16491990	      8.89887591	      0.00000013	      0.00000000	    -11.32242997	     -3.93427198	      3.12692083
      3.86000000	     -4.28999142	      1.28530842	      3.00320323	     -0.06618010	      0.97526376	     -0.00550669	      9.05831348	      0.36770013	     -2.54533471	    -17.70738903	     11.30555454	      0.00000034	      0.00000000	     35.31711426	     -1.91377903	     -8.34747623	    -55.64849987	     10.20096165	      0.00000008	      0.00000000	    -11.29147741	     -4.11014467	      3.38252640
      3.87000000	     -4.30267629	      1.36265806	      2.80011617	     -0.06709765	      0.97486656	     -0.00569080	      7.63576559	      0.34089153	     -2.30201502	    -16.69004875	     11.47153455	      0.00000034	      0.00000000	     36.24145434	     -1.96227739	     -9.19262718	    -52.91188883	     11.34077718	      0.00000003	      0.00000000	    -11.29017044	     -4.23126885	      3.64488142
      3.88000000	     -4.22940962	      1.53008170	      2.35578951	     -0.06702488	      0.97423086	     -0.00542441	      5.87558273	      0.26806650	     -1.84203469	    -15.27992015	     11.22529219	      0.00000039	      0.00000000	     36.75960907	     -2.07625034	    -10.27749016	    -49.78246241	     12.24473005	     -0.00000006	      0.00000000	    -11.24849910	     -4.50583494	      4.11495628
      3.89000000	     -4.24033968	      1.44099301	      2.21430722	     -0.06816968	      0.97260649	     -0.00586925	      4.42227662	      0.37830243	     -1.77134959	    -14.18282310	     11.11250682	      0.00000035	      0.00000000	     37.48979568	     -2.12341198	    -10.70409964	    -46.58479461	     13.37356873	     -0.00000009	      0.00000000	    -11.23769319	     -4.39290491	      4.27532647
      3.90000000	     -4.22087797	      1.45363476	      1.96021007	     -0.06879083	      0.97074310	     -0.00612196	      2.82297892	      0.38188768	     -1.60853531	    -12.91426332	     10.66545734	      0.00000039	      0.00000000	     37.98314783	     -2.13264677	    -11.32934183	    -43.16085458	     13.85217280	     -0.00000009	      0.00000000	    -11.23672047	     -4.46736671	      4.61826842
      3.91000000	     -4.18555758	      1.41984376	      1.70740507	     -0.06932426	      0.96836494	     -0.00652929	      1.35315579	      0.38453156	     -1.56833574	    -11.96330469	     10.53854396	      0.00000036	      0.00000000	     38.28662838	     -2.09542425	    -11.64719876	    -39.43947709	     14.37678170	     -0.00000019	      0.00000000	    -11.18955765	     -4.44723571	      4.83458463
      3.92000000	     -4.15672122	      1.36959033	      1.46324759	     -0.06971077	      0.96555773	     -0.00696983	     -0.27039153	      0.39552875	     -1.56100931	    -10.72334590	     10.15257218	      0.00000034	      0.00000000	     38.39697961	     -2.02874895	    -11.75377202	    -35.40479206	     14.23913695	     -0.00000014	      0.00000000	    -11.17768702	     -4.44297034	      5.15202148
      3.93000000	     -4.13103956	      1.29522199	      1.24338336	     -0.06996668	      0.96234298	     -0.00757866	     -1.83600935	      0.39238444	     -1.69153982	     -9.60741261	      9.79441244	      0.00000033	      0.00000000	     38.40223769	     -1.93286245	    -11.57729327	    -31.27894809	     14.23197792	     -0.00000018	      0.00000000	    -11.11572529	     -4.38565822	      5.37022265
